<svg width="16" height="12" viewBox="0 0 16 12" fill="none" xmlns="http://www.w3.org/2000/svg">
<mask id="path-1-inside-1" fill="white">
<path d="M14.5 0H1.50001C0.672854 0 0 0.672853 0 1.50001V10.5C0 11.3271 0.672854 12 1.50001 12H14.5C15.3271 12 16 11.3271 16 10.5V1.50001C16 0.672853 15.3271 0 14.5 0V0ZM14.5 0.999994C14.5679 0.999994 14.6325 1.01409 14.6916 1.0387L8 6.83838L1.30833 1.0387C1.36742 1.01412 1.43204 0.999994 1.49998 0.999994H14.5ZM14.5 11H1.50001C1.22414 11 0.999996 10.7759 0.999996 10.5V2.09521L7.67236 7.87792C7.76661 7.95944 7.8833 7.99999 8 7.99999C8.1167 7.99999 8.23339 7.95948 8.32764 7.87792L15 2.09521V10.5C15 10.7759 14.7759 11 14.5 11V11Z"/>
</mask>
<path d="M14.5 0H1.50001C0.672854 0 0 0.672853 0 1.50001V10.5C0 11.3271 0.672854 12 1.50001 12H14.5C15.3271 12 16 11.3271 16 10.5V1.50001C16 0.672853 15.3271 0 14.5 0V0ZM14.5 0.999994C14.5679 0.999994 14.6325 1.01409 14.6916 1.0387L8 6.83838L1.30833 1.0387C1.36742 1.01412 1.43204 0.999994 1.49998 0.999994H14.5ZM14.5 11H1.50001C1.22414 11 0.999996 10.7759 0.999996 10.5V2.09521L7.67236 7.87792C7.76661 7.95944 7.8833 7.99999 8 7.99999C8.1167 7.99999 8.23339 7.95948 8.32764 7.87792L15 2.09521V10.5C15 10.7759 14.7759 11 14.5 11V11Z" fill="#757575"/>
<path d="M14.6916 1.0387L15.3916 1.84634L16.6959 0.715912L15.1027 0.0521356L14.6916 1.0387ZM8 6.83838L7.30002 7.64602L8 8.25269L8.69998 7.64602L8 6.83838ZM1.30833 1.0387L0.897787 0.0519377L-0.69664 0.715305L0.608352 1.84634L1.30833 1.0387ZM0.999996 2.09521L1.69996 1.28756L-0.0687683 -0.245343V2.09521H0.999996ZM7.67236 7.87792L6.97239 8.68557L6.97317 8.68624L7.67236 7.87792ZM8.32764 7.87792L9.027 8.6861L9.02761 8.68557L8.32764 7.87792ZM15 2.09521H16.0688V-0.245343L14.3 1.28756L15 2.09521ZM15 10.5L16.0688 10.5001V10.5H15ZM14.5 -1.06876H1.50001V1.06876H14.5V-1.06876ZM1.50001 -1.06876C0.082593 -1.06876 -1.06876 0.0825894 -1.06876 1.50001H1.06876C1.06876 1.26312 1.26311 1.06876 1.50001 1.06876V-1.06876ZM-1.06876 1.50001V10.5H1.06876V1.50001H-1.06876ZM-1.06876 10.5C-1.06876 11.9174 0.0825933 13.0688 1.50001 13.0688V10.9312C1.26311 10.9312 1.06876 10.7369 1.06876 10.5H-1.06876ZM1.50001 13.0688H14.5V10.9312H1.50001V13.0688ZM14.5 13.0688C15.9174 13.0688 17.0688 11.9174 17.0688 10.5H14.9312C14.9312 10.7369 14.7369 10.9312 14.5 10.9312V13.0688ZM17.0688 10.5V1.50001H14.9312V10.5H17.0688ZM17.0688 1.50001C17.0688 0.0825888 15.9174 -1.06876 14.5 -1.06876V1.06876C14.7369 1.06876 14.9312 1.26312 14.9312 1.50001H17.0688ZM14.5 2.06876C14.4185 2.06876 14.3438 2.05161 14.2806 2.02527L15.1027 0.0521356C14.9213 -0.0234345 14.7174 -0.0687697 14.5 -0.0687697V2.06876ZM13.9916 0.231066L7.30002 6.03074L8.69998 7.64602L15.3916 1.84634L13.9916 0.231066ZM8.69998 6.03074L2.00832 0.231064L0.608352 1.84634L7.30002 7.64602L8.69998 6.03074ZM1.71888 2.02547C1.6563 2.05151 1.58182 2.06876 1.49998 2.06876V-0.0687697C1.28226 -0.0687697 1.07853 -0.023263 0.897787 0.0519377L1.71888 2.02547ZM1.49998 2.06876H14.5V-0.0687697H1.49998V2.06876ZM14.5 9.93121H1.50001V12.0687H14.5V9.93121ZM1.50001 9.93121C1.81435 9.93121 2.06876 10.1856 2.06876 10.5H-0.0687683C-0.0687683 11.3662 0.63392 12.0687 1.50001 12.0687V9.93121ZM2.06876 10.5V2.09521H-0.0687683V10.5H2.06876ZM0.30003 2.90286L6.97239 8.68557L8.37232 7.07026L1.69996 1.28756L0.30003 2.90286ZM6.97317 8.68624C7.26816 8.94141 7.6353 9.06875 8 9.06875V6.93123C8.13131 6.93123 8.26505 6.97748 8.37155 7.06959L6.97317 8.68624ZM8 9.06875C8.36452 9.06875 8.73179 8.94156 9.027 8.6861L7.62829 7.06973C7.73499 6.9774 7.86887 6.93123 8 6.93123V9.06875ZM9.02761 8.68557L15.7 2.90286L14.3 1.28756L7.62768 7.07026L9.02761 8.68557ZM13.9312 2.09521V10.5H16.0688V2.09521H13.9312ZM13.9312 10.4999C13.9313 10.1856 14.1856 9.93121 14.5 9.93121V12.0687C15.3661 12.0687 16.0687 11.3661 16.0688 10.5001L13.9312 10.4999Z" fill="#757575" mask="url(#path-1-inside-1)"/>
</svg>
